<?xml version="1.0" encoding="UTF-8"?>
<svg xmlns="http://www.w3.org/2000/svg" xmlns:xlink="http://www.w3.org/1999/xlink" viewBox="0 0 48 48" width="48px" height="48px">
<g id="surface1153018">
<rect x="0" y="0" width="48" height="48" style="fill:rgb(100%,100%,100%);fill-opacity:1;stroke:none;"/>
<path style=" stroke:none;fill-rule:nonzero;fill:rgb(29.411766%,29.411766%,29.411766%);fill-opacity:1;" d="M 8.652344 17.609375 C 8.09375 18.292969 7.199219 18.835938 6.304688 18.757812 C 6.195312 17.832031 6.632812 16.847656 7.144531 16.242188 C 7.703125 15.539062 8.679688 15.039062 9.472656 15 C 9.566406 15.964844 9.203125 16.90625 8.652344 17.609375 M 9.367188 19.234375 C 8.066406 19.234375 7.132812 19.941406 6.523438 19.941406 C 5.902344 19.941406 4.980469 19.242188 3.914062 19.242188 C 2.609375 19.242188 1.332031 20.054688 0.660156 21.238281 C -0.726562 23.605469 0.300781 27.113281 1.636719 29.039062 C 2.292969 29.992188 3.085938 31 4.152344 31 C 5.128906 30.964844 5.460938 30.410156 6.640625 30.410156 C 7.832031 30.410156 8.183594 31 9.25 31 C 10.316406 31 10.964844 30.03125 11.617188 29.074219 C 12.367188 27.992188 12.671875 26.9375 12.6875 26.882812 C 12.671875 26.863281 10.621094 26.085938 10.605469 23.734375 C 10.585938 21.773438 12.21875 20.835938 12.292969 20.78125 C 11.371094 19.421875 9.84375 19.234375 9.488281 19.234375 Z M 22.6875 17 L 17.25 17 L 17.25 31 L 19.515625 31 L 19.515625 26.332031 L 22.613281 26.332031 C 25.457031 26.332031 27.5 24.394531 27.5 21.667969 C 27.5 18.9375 25.496094 17 22.6875 17 Z M 22.136719 24.464844 L 19.515625 24.464844 L 19.515625 18.867188 L 22.136719 18.867188 C 24.089844 18.867188 25.234375 19.898438 25.234375 21.664062 C 25.234375 23.433594 24.097656 24.464844 22.136719 24.464844 Z M 32.753906 20.5 C 30.363281 20.5 28.597656 21.824219 28.53125 23.644531 L 30.558594 23.644531 C 30.722656 22.777344 31.550781 22.210938 32.6875 22.210938 C 34.0625 22.210938 34.839844 22.832031 34.839844 23.976562 L 34.84375 24.769531 L 32.027344 24.914062 C 29.414062 25.066406 28 26.105469 28 27.90625 C 28 29.726562 29.460938 30.933594 31.550781 30.933594 C 32.964844 30.933594 34.277344 30.242188 34.871094 29.140625 L 34.917969 29.140625 L 34.917969 30.828125 L 37 30.828125 L 37 23.835938 C 37 21.804688 35.328125 20.5 32.753906 20.5 Z M 34.835938 27.015625 C 34.835938 28.328125 33.679688 29.265625 32.15625 29.265625 C 30.957031 29.265625 30.195312 28.707031 30.195312 27.851562 C 30.195312 26.96875 30.929688 26.457031 32.332031 26.375 L 34.839844 26.191406 Z M 45.691406 20.5 L 43.015625 29.089844 L 42.96875 29.089844 L 40.292969 20.5 L 37.921875 20.5 L 41.769531 31.085938 L 41.5625 31.726562 C 41.214844 32.820312 40.652344 33.238281 39.648438 33.238281 C 39.476562 33.238281 39.152344 33.222656 39 33.203125 L 39 34.949219 C 39.152344 34.980469 39.679688 35 39.84375 35 C 42.058594 35 43.101562 34.160156 44.011719 31.613281 L 48 20.5 Z M 45.691406 20.5 "/>
</g>
</svg>
